<svg display="none" xmlns="http://www.w3.org/2000/svg">
    <symbol viewBox="0 0 25 29" id="youtube-icon">
        <path d="M20.6577 21.3834H19.1128L19.12 20.4793C19.12 20.0774 19.4474 19.7487 19.8477 19.7487H19.9462C20.3471 19.7487 20.6755 20.0774 20.6755 20.4793L20.6577 21.3834ZM14.8638 19.4459C14.4719 19.4459 14.1514 19.7112 14.1514 20.0361V24.4335C14.1514 24.7577 14.4719 25.0225 14.8638 25.0225C15.2572 25.0225 15.578 24.7577 15.578 24.4335V20.0361C15.578 19.7109 15.2572 19.4459 14.8638 19.4459ZM24.2728 16.9861V25.3515C24.2728 27.3581 22.5459 29 20.4356 29H4.65571C2.54449 29 0.818237 27.3581 0.818237 25.3515V16.9861C0.818237 14.9795 2.54449 13.3373 4.65571 13.3373H20.4356C22.5459 13.3373 24.2728 14.9795 24.2728 16.9861ZM5.70835 26.2598L5.7071 17.4478L7.66321 17.4484V16.1428L2.4488 16.1349V17.4185L4.07654 17.4232V26.2598H5.70835ZM11.572 18.7604H9.94112V23.4659C9.94112 24.1467 9.98209 24.487 9.93862 24.6071C9.80602 24.9721 9.20996 25.3594 8.9776 24.6465C8.9382 24.5217 8.97291 24.1451 8.97229 23.4984L8.96572 18.7604H7.34392L7.34892 23.4237C7.35017 24.1385 7.33297 24.6717 7.35455 24.9141C7.39427 25.3417 7.38019 25.8406 7.77392 26.1252C8.50758 26.6581 9.91391 26.0458 10.2657 25.2844L10.2626 26.256L11.5723 26.2576V18.7604H11.572ZM16.7892 24.1489L16.7858 20.2325C16.7845 18.7399 15.6765 17.8458 14.1723 19.0535L14.1789 16.1418L12.5496 16.1443L12.5418 26.1945L13.8812 26.1747L14.0031 25.5488C15.7156 27.1318 16.7917 26.0473 16.7892 24.1489ZM21.8932 23.6298L20.6702 23.6364C20.6695 23.6853 20.668 23.7417 20.6674 23.8032V24.4908C20.6674 24.8586 20.3656 25.1583 19.9991 25.1583H19.7595C19.3924 25.1583 19.0909 24.8586 19.0909 24.4908V24.4145V23.6582V22.6822H21.8911V21.6201C21.8911 20.8439 21.8714 20.068 21.8076 19.6242C21.6074 18.2206 19.6522 17.9977 18.6646 18.7163C18.3544 18.9407 18.1177 19.241 17.9801 19.6447C17.8409 20.0484 17.7721 20.6 17.7721 21.3005V23.6355C17.7724 27.5175 22.4515 26.9689 21.8932 23.6298ZM15.6206 10.9519C15.7047 11.158 15.8354 11.325 16.0127 11.4511C16.1878 11.5753 16.4121 11.6377 16.6801 11.6377C16.9153 11.6377 17.1235 11.5737 17.3049 11.4417C17.4857 11.3102 17.638 11.1139 17.7621 10.852L17.7315 11.4968H19.5494V3.70594H18.1183V9.76946C18.1183 10.0978 17.85 10.3667 17.5219 10.3667C17.1958 10.3667 16.9265 10.0978 16.9265 9.76946V3.70594H15.4329V8.96078C15.4329 9.63016 15.4448 10.0764 15.4645 10.3027C15.4855 10.5274 15.5364 10.743 15.6206 10.9519ZM10.1116 6.55176C10.1116 5.80391 10.1735 5.21993 10.2964 4.79889C10.4202 4.37942 10.6426 4.04221 10.9647 3.78788C11.2858 3.53229 11.6971 3.40434 12.1971 3.40434C12.6178 3.40434 12.978 3.48754 13.2792 3.65048C13.5816 3.81436 13.8146 4.02708 13.9766 4.2896C14.1414 4.55307 14.2533 4.82379 14.313 5.1008C14.374 5.3816 14.404 5.80517 14.404 6.37654V8.34686C14.404 9.06951 14.3753 9.60117 14.3196 9.93869C14.2643 10.2772 14.1454 10.5911 13.9615 10.8854C13.7798 11.1766 13.5456 11.3944 13.2617 11.5334C12.9746 11.6736 12.6462 11.7423 12.2753 11.7423C11.861 11.7423 11.5119 11.6846 11.2242 11.5642C10.9356 11.4445 10.7126 11.2639 10.5538 11.0241C10.3933 10.7839 10.2804 10.4915 10.2123 10.1505C10.1438 9.8098 10.1112 9.29736 10.1112 8.61443V6.55176H10.1116ZM11.5354 9.64655C11.5354 10.0878 11.8613 10.448 12.2581 10.448C12.6553 10.448 12.9796 10.0878 12.9796 9.64655V5.49916C12.9796 5.05857 12.6553 4.69836 12.2581 4.69836C11.8613 4.69836 11.5354 5.05857 11.5354 5.49916V9.64655ZM6.50424 11.7407H8.21924L8.22112 5.76546L10.2476 0.646768H8.37185L7.29451 4.44876L6.20184 0.636368H4.34549L6.50143 5.7683L6.50424 11.7407Z"
              fill="black"/>
    </symbol>
    <symbol viewBox="0 0 30 30" id="vk-icon">
        <path d="M19.605 0H10.395C1.99 0 0 1.99 0 10.395V19.605C0 28.01 1.99 30 10.395 30H19.605C28.01 30 30 28.01 30 19.605V10.395C30 1.99 27.9888 0 19.605 0ZM24.22 21.4037H22.04C21.215 21.4037 20.96 20.7475 19.4775 19.245C18.1862 17.995 17.615 17.8263 17.2975 17.8263C16.8525 17.8263 16.725 17.9538 16.725 18.5675V20.5363C16.725 21.0663 16.5562 21.3838 15.1587 21.3838C12.8512 21.3838 10.2887 19.9862 8.49 17.3813C5.78 13.5712 5.0375 10.7125 5.0375 10.12C5.0375 9.8025 5.165 9.50625 5.77875 9.50625H7.95875C8.50875 9.50625 8.72125 9.76 8.93375 10.3525C10.0125 13.465 11.8125 16.1962 12.5538 16.1962C12.8288 16.1962 12.9562 16.0688 12.9562 15.3713V12.1512C12.8713 10.6687 12.0875 10.5425 12.0875 10.0138C12.0875 9.75875 12.3 9.505 12.6375 9.505H16.0675C16.5338 9.505 16.7025 9.75875 16.7025 10.3088V14.65C16.7025 15.115 16.915 15.285 17.0413 15.285C17.3162 15.285 17.55 15.115 18.0575 14.6075C19.625 12.85 20.7463 10.14 20.7463 10.14C20.895 9.8225 21.1488 9.52625 21.7 9.52625H23.88C24.5362 9.52625 24.685 9.86375 24.5362 10.33C24.2612 11.6012 21.5938 15.3687 21.5938 15.3687C21.3612 15.75 21.2762 15.9187 21.5938 16.3438C21.8263 16.6612 22.5888 17.3175 23.0975 17.91C24.0288 18.9688 24.7475 19.8575 24.9388 20.4725C25.1513 21.085 24.8325 21.4025 24.2188 21.4025L24.22 21.4037Z"
              fill="black"/>
    </symbol>
    <symbol viewBox="0 0 30 30" id="facebook-icon">
        <path d="M5.47782 0C2.44335 0 0 2.44335 0 5.47782V24.5222C0 27.5567 2.44335 30 5.47782 30H15.7997V18.2719H12.6985V14.0494H15.7997V10.4419C15.7997 7.60764 17.6321 5.00532 21.8531 5.00532C23.5622 5.00532 24.826 5.16939 24.826 5.16939L24.7266 9.11253C24.7266 9.11253 23.4377 9.10035 22.0312 9.10035C20.5091 9.10035 20.265 9.80169 20.265 10.966V14.0494H24.8475L24.6478 18.2719H20.265V30.0001H24.5222C27.5567 30.0001 30 27.5567 30 24.5222V5.47785C30 2.44338 27.5567 3e-05 24.5222 3e-05H5.47779L5.47782 0Z"
              fill="black"/>
    </symbol>
    <symbol viewBox="0 0 30 30" id="twitter-icon">
        <path d="M26.7857 0H3.21429C1.43973 0 0 1.43973 0 3.21429V26.7857C0 28.5603 1.43973 30 3.21429 30H26.7857C28.5603 30 30 28.5603 30 26.7857V3.21429C30 1.43973 28.5603 0 26.7857 0ZM23.5112 10.6339C23.5246 10.8214 23.5246 11.0156 23.5246 11.2031C23.5246 17.0089 19.1049 23.6987 11.029 23.6987C8.53795 23.6987 6.22768 22.9754 4.28571 21.7299C4.64062 21.7701 4.98214 21.7835 5.34375 21.7835C7.39955 21.7835 9.28795 21.0871 10.7946 19.9085C8.86607 19.8683 7.24554 18.6027 6.68973 16.8616C7.36607 16.9621 7.97545 16.9621 8.67188 16.7812C6.66295 16.3728 5.15625 14.6049 5.15625 12.4687V12.4152C5.73884 12.7433 6.42187 12.9442 7.13839 12.971C6.536 12.5703 6.04218 12.0267 5.70098 11.3887C5.35979 10.7507 5.18185 10.0382 5.18304 9.31473C5.18304 8.49777 5.39732 7.74777 5.77902 7.09821C7.94196 9.76339 11.1897 11.5045 14.8326 11.692C14.2098 8.71205 16.4397 6.29464 19.1183 6.29464C20.3839 6.29464 21.5223 6.82366 22.3259 7.6808C23.317 7.4933 24.2679 7.125 25.1116 6.62277C24.7835 7.64062 24.0938 8.49777 23.183 9.04018C24.067 8.94643 24.9241 8.69866 25.7143 8.35714C25.1183 9.23438 24.3683 10.0112 23.5112 10.6339Z"
              fill="black"/>
    </symbol>
    <symbol viewBox="0 0 29 30" id="twitch-icon">
        <path d="M1.99095 -0.00480652L-0.00378418 5.14475V26.1916H7.08713V29.9952H11.0766L14.8407 26.1916H20.6062L28.3599 18.3568V-0.00480652H1.99095ZM25.7024 17.0108L21.2689 21.4907H14.178L10.4139 25.2943V21.4907H4.42969V2.68046H25.7024V17.0108ZM21.2689 7.83001V15.6581H18.6115V7.83001H21.2689ZM14.178 7.83001V15.6581H11.5206V7.83001H14.178Z"
              fill="black"/>
    </symbol>
    <symbol viewBox="0 0 30 30" id="instagram-icon">
        <path d="M15 11.4281C14.2936 11.4284 13.6032 11.6381 13.0159 12.0307C12.4287 12.4234 11.9711 12.9813 11.701 13.634C11.4308 14.2867 11.3603 15.0049 11.4983 15.6977C11.6362 16.3904 11.9765 17.0268 12.4761 17.5262C12.9757 18.0256 13.6122 18.3656 14.305 18.5033C14.9978 18.6411 15.7159 18.5702 16.3685 18.2999C17.0211 18.0295 17.5789 17.5717 17.9713 16.9843C18.3638 16.3969 18.5732 15.7064 18.5732 15C18.5725 14.0527 18.1958 13.1444 17.5258 12.4746C16.8558 11.8049 15.9473 11.4285 15 11.4281ZM23.3511 8.68259C23.1693 8.22177 22.8947 7.80323 22.5444 7.45293C22.1941 7.10263 21.7756 6.82804 21.3147 6.6462C19.9085 6.09107 16.5603 6.21562 15 6.21562C13.4397 6.21562 10.0949 6.08638 8.6846 6.6462C8.22378 6.82804 7.80524 7.10263 7.45494 7.45293C7.10464 7.80323 6.83005 8.22177 6.64821 8.68259C6.09375 10.0888 6.21763 13.4404 6.21763 14.9993C6.21763 16.5583 6.09375 19.9058 6.65089 21.3167C6.83273 21.7776 7.10732 22.1961 7.45761 22.5464C7.80791 22.8967 8.22646 23.1713 8.68728 23.3531C10.0935 23.9083 13.4417 23.7837 15.0027 23.7837C16.5636 23.7837 19.9071 23.9129 21.3174 23.3531C21.7782 23.1713 22.1968 22.8967 22.5471 22.5464C22.8974 22.1961 23.172 21.7776 23.3538 21.3167C23.9129 19.9105 23.7844 16.5589 23.7844 15C23.7844 13.4411 23.9129 10.0942 23.3538 8.68326L23.3511 8.68259ZM15 20.4911C13.914 20.4911 12.8523 20.169 11.9493 19.5657C11.0463 18.9623 10.3425 18.1047 9.92691 17.1013C9.5113 16.098 9.40256 14.9939 9.61444 13.9287C9.82631 12.8636 10.3493 11.8852 11.1172 11.1172C11.8852 10.3493 12.8636 9.82631 13.9287 9.61444C14.9939 9.40256 16.098 9.5113 17.1013 9.92691C18.1047 10.3425 18.9623 11.0463 19.5657 11.9493C20.169 12.8523 20.4911 13.914 20.4911 15C20.492 15.7213 20.3505 16.4358 20.0749 17.1024C19.7992 17.769 19.3948 18.3747 18.8847 18.8847C18.3747 19.3948 17.769 19.7992 17.1024 20.0749C16.4358 20.3505 15.7213 20.492 15 20.4911ZM20.7174 10.5603C20.4639 10.5604 20.216 10.4853 20.0052 10.3446C19.7943 10.2038 19.6299 10.0037 19.5328 9.76952C19.4357 9.53533 19.4102 9.2776 19.4596 9.02894C19.509 8.78027 19.631 8.55183 19.8102 8.37251C19.9894 8.1932 20.2178 8.07106 20.4664 8.02155C20.7151 7.97204 20.9728 7.99739 21.2071 8.09437C21.4413 8.19136 21.6415 8.35564 21.7824 8.56643C21.9233 8.77722 21.9984 9.02505 21.9984 9.27857C21.9991 9.44693 21.9666 9.61377 21.9027 9.76952C21.8388 9.92527 21.7447 10.0669 21.626 10.1862C21.5072 10.3055 21.366 10.4002 21.2106 10.4649C21.0551 10.5295 20.8884 10.5629 20.7201 10.5629L20.7174 10.5603ZM26.7857 0H3.21429C2.3618 0 1.54424 0.338647 0.941442 0.941443C0.338647 1.54424 0 2.3618 0 3.21429L0 26.7857C0 27.6382 0.338647 28.4558 0.941442 29.0586C1.54424 29.6614 2.3618 30 3.21429 30H26.7857C27.6382 30 28.4558 29.6614 29.0586 29.0586C29.6614 28.4558 30 27.6382 30 26.7857V3.21429C30 2.3618 29.6614 1.54424 29.0586 0.941443C28.4558 0.338647 27.6382 0 26.7857 0ZM25.6393 19.4196C25.5529 21.1359 25.1612 22.6567 23.9083 23.9062C22.6554 25.1558 21.1359 25.5556 19.4217 25.6373C17.6531 25.7371 12.3509 25.7371 10.5824 25.6373C8.86607 25.5509 7.35067 25.1585 6.09576 23.9062C4.84085 22.654 4.44643 21.1326 4.36473 19.4196C4.26496 17.6504 4.26496 12.3475 4.36473 10.5804C4.45112 8.86406 4.83817 7.3433 6.09576 6.09375C7.35335 4.8442 8.87277 4.44911 10.5824 4.36741C12.3509 4.26763 17.6531 4.26763 19.4217 4.36741C21.1379 4.45379 22.658 4.84621 23.9083 6.09844C25.1585 7.35067 25.5576 8.8721 25.6393 10.5884C25.7391 12.3509 25.7391 17.6491 25.6393 19.4196Z"
              fill="black"/>
    </symbol>
    <symbol viewBox="0 0 132 132" id="action-icon">
        <path d="M65.1797 11.001L66 11.3701L66.8203 11.001L85.5547 2.57324L95.998 21.0967L96.4268 21.8574L97.2773 22.0596L117.256 26.8135L115.368 48.2881L115.295 49.1104L115.824 49.7441L129.395 66L115.824 82.2559L115.295 82.8896L115.368 83.7119L117.256 105.186L97.2773 109.94L96.4287 110.142L95.999 110.901L85.5566 129.364L66.8203 120.937L65.9971 120.565L65.1748 120.938L46.4395 129.423L36.001 110.964L35.5713 110.205L34.7227 110.003L14.7432 105.248L16.6328 83.7119L16.7041 82.8896L16.1758 82.2559L2.60254 65.9971L16.1777 49.6787L16.7041 49.0459L16.6328 48.2256L14.7432 26.6934L34.7178 21.998L35.5703 21.7979L36.001 21.0361L46.4424 2.57227L65.1797 11.001Z"
              stroke="#F8F200" stroke-width="4"/>
        <path d="M54.3044 90.084L48.4707 84.2504C46.1373 81.9169 43.8038 81.9169 41.4704 84.2504L36.061 89.6598L38.3945 91.9932L43.8038 86.5838C44.5817 85.806 45.3524 85.799 46.1161 86.5626L46.1373 86.5838L42.0644 90.6568C40.1127 92.6084 40.0915 94.5388 42.0007 96.448C43.9806 98.4279 45.9464 98.442 47.898 96.4904L54.3044 90.084ZM44.3766 94.157C43.9948 93.7751 44.0018 93.3862 44.3978 92.9902L48.4707 88.9173L49.6375 90.084L45.5645 94.157C45.1686 94.5529 44.7726 94.5529 44.3766 94.157ZM66.0777 78.3107L62.7472 81.6412L55.5772 81.8109L54.4104 82.9776L57.9106 86.4778L55.5772 88.8112L46.2434 79.4774L48.5768 77.144L52.077 80.6441L53.2437 79.4774L53.4346 72.2861L56.7439 68.9769L56.6378 78.4168L66.0777 78.3107ZM64.3889 61.3318L71.3893 68.3322L67.8891 71.8324C67.1113 72.6102 66.3335 72.6102 65.5557 71.8324L59.722 65.9987L57.3886 68.3322L63.2222 74.1658C65.5557 76.4993 67.8891 76.4993 70.2226 74.1658L74.8895 69.4989L77.2229 71.8324L79.6624 69.3929L74.9955 64.726L73.7227 65.9987L66.7224 58.9984L64.3889 61.3318ZM87.305 57.0834L84.9715 59.4169L83.9745 58.4198C83.5785 60.428 82.8149 61.9978 81.6835 63.1292C79.35 65.4626 77.0166 65.4626 74.6831 63.1292L68.6374 57.0834L70.9708 54.7499L77.0166 60.7957C77.7803 61.5594 78.5581 61.5594 79.35 60.7957C80.7077 59.0421 81.1319 57.1329 80.6228 55.0681L75.6377 50.083L77.9712 47.7496L87.305 57.0834ZM82.2138 49.4466C80.2339 47.4667 80.2198 45.501 82.1714 43.5494L88.5778 37.143L97.9116 46.4768L95.5781 48.8103L92.078 45.3101L91.0385 46.3495L91.6113 52.7771L88.5778 55.8106L88.005 49.383C86.0534 51.3346 84.123 51.3558 82.2138 49.4466ZM88.5778 41.8099L84.5048 45.8828C84.1089 46.2788 84.123 46.6889 84.5473 47.1132C84.9008 47.4667 85.2756 47.4455 85.6716 47.0496L89.7445 42.9766L88.5778 41.8099Z"
              fill="#F8F200"/>
    </symbol>
</svg>